<svg width="258" height="258" viewBox="0 0 258 258" fill="none" xmlns="http://www.w3.org/2000/svg">
<rect x="0.210938" y="0.485352" width="257" height="257" rx="128.5" fill="#D9D9D9"/>
<rect width="165" height="165" transform="translate(46 46)" fill="white" style="mix-blend-mode:multiply"/>
<path d="M76.9375 200.688H180.062V174.906C180.051 165.337 176.245 156.163 169.479 149.396C162.712 142.63 153.538 138.824 143.969 138.812H113.031C103.462 138.824 94.2879 142.63 87.5215 149.396C80.755 156.163 76.9487 165.337 76.9375 174.906V200.688Z" fill="#161616"/>
<path d="M92.4062 92.4062C92.4062 99.5449 94.5231 106.523 98.4891 112.459C102.455 118.394 108.092 123.021 114.688 125.753C121.283 128.484 128.54 129.199 135.542 127.806C142.543 126.414 148.974 122.976 154.022 117.928C159.07 112.881 162.508 106.449 163.9 99.4478C165.293 92.4463 164.578 85.189 161.846 78.5938C159.114 71.9985 154.488 66.3614 148.553 62.3954C142.617 58.4294 135.639 56.3125 128.5 56.3125C118.927 56.3125 109.747 60.1152 102.978 66.8841C96.209 73.653 92.4062 82.8336 92.4062 92.4062Z" fill="#161616"/>
</svg>
