<svg width="90" height="90" viewBox="0 0 90 90" fill="none" xmlns="http://www.w3.org/2000/svg">
<circle cx="45" cy="45" r="45" fill="#7D7D7D" fill-opacity="0.7"/>
<path d="M35.2857 61C34.6795 61 34.0981 60.7592 33.6695 60.3305C33.2408 59.9019 33 59.3205 33 58.7143V31.286C33 30.8963 33.0995 30.5131 33.2892 30.1728C33.479 29.8324 33.7526 29.5462 34.084 29.3414C34.4155 29.1365 34.7938 29.0198 35.183 29.0023C35.5723 28.9848 35.9596 29.0671 36.3081 29.2414L63.7362 42.9556C64.1159 43.1454 64.4353 43.4372 64.6585 43.7983C64.8818 44.1594 65 44.5756 65 45.0001C65 45.4247 64.8818 45.8408 64.6585 46.202C64.4353 46.5631 64.1159 46.8549 63.7362 47.0447L36.3081 60.7589C35.9906 60.9174 35.6406 61 35.2857 61V61Z" fill="white"/>
</svg>
