<svg id="Logos" xmlns="http://www.w3.org/2000/svg" viewBox="0 0 214.26 282.34"><defs><style>.cls-1{fill:teal;}.cls-2{fill:#28b246;}.cls-3{fill:#28b245;}.cls-4{fill:#f7931e;}</style></defs><g id="Vertical"><g id="Layer_11" data-name="Layer 11"><path class="cls-1" d="M42.25,172h3.44l8,18.88L62,172h.6l8.35,18.88L79,172h3.48l-11.3,26H70.6l-8.31-18.61L54,198h-.63Z"/><path class="cls-1" d="M112.34,172v26H109v-4.47a14.21,14.21,0,0,1-4.72,3.85,13.19,13.19,0,0,1-15.15-2.71,13.74,13.74,0,0,1-3.82-11.45,12.25,12.25,0,0,1,2.58-6.44,13.18,13.18,0,0,1,10.76-5.45,12.26,12.26,0,0,1,5.8,1.37,13.07,13.07,0,0,1,4.55,4.08V172ZM99,174.55a10.07,10.07,0,0,0-8.92,5.23,10.54,10.54,0,0,0,0,10.5,10.2,10.2,0,0,0,3.78,3.9,9.89,9.89,0,0,0,5.1,1.4,10.49,10.49,0,0,0,5.2-1.38,9.73,9.73,0,0,0,3.78-3.75,10.75,10.75,0,0,0,1.33-5.33,10.32,10.32,0,0,0-3-7.54A9.84,9.84,0,0,0,99,174.55Z"/><path class="cls-1" d="M117.07,172h3.54l8.93,20,8.68-20h3.56L126.27,207.5h-3.53l5-11.48Z"/><path class="cls-1" d="M172,172v26h-3.3v-4.47a14.21,14.21,0,0,1-4.72,3.85,13.19,13.19,0,0,1-15.15-2.71A13.74,13.74,0,0,1,145,183.21a12.25,12.25,0,0,1,2.58-6.44,13.18,13.18,0,0,1,10.76-5.45,12.26,12.26,0,0,1,5.8,1.37,13.07,13.07,0,0,1,4.55,4.08V172Zm-13.37,2.56a10.07,10.07,0,0,0-8.92,5.23,10.54,10.54,0,0,0,0,10.5,10.2,10.2,0,0,0,3.78,3.9,9.89,9.89,0,0,0,5.1,1.4,10.46,10.46,0,0,0,5.2-1.38,9.73,9.73,0,0,0,3.78-3.75,10.65,10.65,0,0,0,1.33-5.33,10.35,10.35,0,0,0-3-7.54A9.86,9.86,0,0,0,158.64,174.55Z"/><path class="cls-2" d="M48.87,237.84l2.78,1.46a15.07,15.07,0,0,1-3.16,4.34,12.53,12.53,0,0,1-4,2.52,14.2,14.2,0,0,1-5.08.86q-6.28,0-9.83-4.12A13.91,13.91,0,0,1,26,233.59a13.73,13.73,0,0,1,3-8.71A12.27,12.27,0,0,1,39.18,220a12.66,12.66,0,0,1,10.49,5,13.87,13.87,0,0,1,2.83,8.78H29.4a10.39,10.39,0,0,0,2.86,7.33A9.11,9.11,0,0,0,39.09,244a10.82,10.82,0,0,0,3.81-.68,10,10,0,0,0,3.16-1.81A15.48,15.48,0,0,0,48.87,237.84Zm0-6.92a10.81,10.81,0,0,0-1.93-4.22,9.22,9.22,0,0,0-3.53-2.64,10.32,10.32,0,0,0-3.94-.88,9.47,9.47,0,0,0-6.74,2.43,11,11,0,0,0-3,5.31Z"/><path class="cls-2" d="M58.66,220.68H62v4.6a13.72,13.72,0,0,1,4.39-3.95A10.81,10.81,0,0,1,71.6,220a9.15,9.15,0,0,1,5.11,1.46A8.8,8.8,0,0,1,80,225.42a20.86,20.86,0,0,1,1.06,7.72v13.22h-3.3V234.11a30.67,30.67,0,0,0-.37-5.93,6.54,6.54,0,0,0-2.2-3.83,6.66,6.66,0,0,0-4.25-1.29,8.11,8.11,0,0,0-5.37,2,9.25,9.25,0,0,0-3.13,4.9,34.64,34.64,0,0,0-.47,7v9.42H58.66Z"/><path class="cls-2" d="M109.76,237.84l2.79,1.46a15.28,15.28,0,0,1-3.17,4.34,12.53,12.53,0,0,1-4,2.52,14.2,14.2,0,0,1-5.08.86q-6.29,0-9.83-4.12a13.91,13.91,0,0,1-3.54-9.31,13.73,13.73,0,0,1,3-8.71A12.27,12.27,0,0,1,100.07,220a12.66,12.66,0,0,1,10.49,5,13.94,13.94,0,0,1,2.84,8.78H90.29a10.44,10.44,0,0,0,2.86,7.33A9.11,9.11,0,0,0,100,244a10.78,10.78,0,0,0,3.81-.68,10,10,0,0,0,3.16-1.81A15.22,15.22,0,0,0,109.76,237.84Zm0-6.92a10.81,10.81,0,0,0-1.93-4.22,9.22,9.22,0,0,0-3.53-2.64,10.32,10.32,0,0,0-3.94-.88,9.47,9.47,0,0,0-6.74,2.43,11,11,0,0,0-3,5.31Z"/><path class="cls-2" d="M118.3,220.68h3.38v3.75a11.79,11.79,0,0,1,3.19-3.31,6.2,6.2,0,0,1,3.49-1.1,6.07,6.07,0,0,1,2.93.87l-1.73,2.79a4.55,4.55,0,0,0-1.74-.45,4.74,4.74,0,0,0-3.19,1.36,8.58,8.58,0,0,0-2.34,4.21q-.62,2.19-.61,8.87v8.69H118.3Z"/><path class="cls-2" d="M156.23,220.68h3.31v20.46a24.11,24.11,0,0,1-.95,7.91,10.24,10.24,0,0,1-4.51,5.45,14.84,14.84,0,0,1-7.71,1.91,17.76,17.76,0,0,1-5.94-.93,12,12,0,0,1-4.28-2.51,15,15,0,0,1-3.05-4.61h3.59a9.54,9.54,0,0,0,3.78,3.78,12.13,12.13,0,0,0,5.74,1.23,11.84,11.84,0,0,0,5.71-1.26,7.72,7.72,0,0,0,3.32-3.16,14.21,14.21,0,0,0,1-6.16v-1.32a12.48,12.48,0,0,1-4.56,3.63,13.54,13.54,0,0,1-12.38-.5,12.52,12.52,0,0,1-4.82-4.73,13.16,13.16,0,0,1-1.68-7.36,12.83,12.83,0,0,1,1.06-4.44,13.41,13.41,0,0,1,12.2-8,12.34,12.34,0,0,1,5.37,1.19,14.85,14.85,0,0,1,4.81,3.93Zm-9.16,2.54a10.55,10.55,0,0,0-6.55,1.8,9.53,9.53,0,0,0-2.65,2.68,10.37,10.37,0,0,0-1.75,5.8,9.34,9.34,0,0,0,2.84,7,10.05,10.05,0,0,0,7.34,2.76,9.94,9.94,0,0,0,7.32-2.74,9.64,9.64,0,0,0,2.78-7.19,10.39,10.39,0,0,0-1.28-5.18,9.44,9.44,0,0,0-4.44-4A9.77,9.77,0,0,0,147.07,223.22Z"/><path class="cls-2" d="M163.86,220.68h3.49l8.82,19.77,8.57-19.77h3.52l-15.32,35.07h-3.49l5-11.34Z"/></g><g id="Layer_12" data-name="Layer 12"><circle class="cls-1" cx="119.12" cy="116" r="5"/><circle class="cls-1" cx="138.22" cy="116" r="5"/><circle class="cls-1" cx="157.33" cy="116" r="5"/><path class="cls-1" d="M134,90.32l2.78,1.46a15.13,15.13,0,0,1-3.16,4.35,12.68,12.68,0,0,1-4,2.51,14.2,14.2,0,0,1-5.08.86q-6.28,0-9.83-4.12a13.89,13.89,0,0,1-3.54-9.31,13.73,13.73,0,0,1,3-8.71,12.26,12.26,0,0,1,10.18-4.86,12.66,12.66,0,0,1,10.49,5,13.87,13.87,0,0,1,2.83,8.78h-23.1a10.39,10.39,0,0,0,2.86,7.33,9.11,9.11,0,0,0,6.83,2.87,10.83,10.83,0,0,0,3.81-.69A9.83,9.83,0,0,0,131.19,94,15.48,15.48,0,0,0,134,90.32Zm0-7.18a10.81,10.81,0,0,0-1.93-4.22,9.39,9.39,0,0,0-3.94-2.81,10,10,0,0,0-3-.69,9.59,9.59,0,0,0-7.22,2.41,11,11,0,0,0-3,5.31Z"/><path class="cls-1" d="M150.36,123.15h0a56.74,56.74,0,1,1,10-16.69h0l2.7,1.33h0a60.08,60.08,0,1,0-10.24,17.11Z"/><path class="cls-1" d="M66.86,73H70.3l8,18.88L86.57,73h.61l8.35,18.88L103.65,73h3.48L95.83,99h-.62L86.9,80.38,78.59,99H78Z"/><circle class="cls-2" cx="119.12" cy="116" r="5"/><circle class="cls-3" cx="138.22" cy="116" r="5"/><circle class="cls-4" cx="157.33" cy="116" r="5"/><path class="cls-3" d="M134,90.32l2.78,1.46a15.13,15.13,0,0,1-3.16,4.35,12.68,12.68,0,0,1-4,2.51,14.2,14.2,0,0,1-5.08.86q-6.28,0-9.83-4.12a13.89,13.89,0,0,1-3.54-9.31,13.73,13.73,0,0,1,3-8.71,12.26,12.26,0,0,1,10.18-4.86,12.66,12.66,0,0,1,10.49,5,13.87,13.87,0,0,1,2.83,8.78h-23.1a10.39,10.39,0,0,0,2.86,7.33,9.11,9.11,0,0,0,6.83,2.87,10.83,10.83,0,0,0,3.81-.69A9.83,9.83,0,0,0,131.19,94,15.48,15.48,0,0,0,134,90.32Zm0-7.18a10.81,10.81,0,0,0-1.93-4.22,9.39,9.39,0,0,0-3.94-2.81,10,10,0,0,0-3-.69,9.59,9.59,0,0,0-7.22,2.41,11,11,0,0,0-3,5.31Z"/><path class="cls-1" d="M150.36,123.15h0a56.74,56.74,0,1,1,10-16.69h0l2.7,1.33h0a60.08,60.08,0,1,0-10.24,17.11Z"/><path class="cls-1" d="M66.86,73H70.3l8,18.88L86.57,73h.61l8.35,18.88L103.65,73h3.48L95.83,99h-.62L86.9,80.38,78.59,99H78Z"/></g></g></svg>